<?xml version="1.0" encoding="UTF-8"?>
<svg width="40" height="40" viewBox="0 0 40 40" fill="none" xmlns="http://www.w3.org/2000/svg">
  <path d="M28.0652 7.93504C31.3924 11.2622 31.3924 16.7383 28.0652 20.0654C24.738 23.3926 19.2619 23.3926 15.9348 20.0654C12.6077 16.7382 12.6077 11.2622 15.9348 7.93504C19.2619 4.60787 24.738 4.60787 28.0652 7.93504Z" fill="#4D6FE5"/>
  <path d="M32.0652 11.9348C35.3923 15.262 35.3923 20.738 32.0652 24.0652C28.738 27.3924 23.2619 27.3924 19.9348 24.0652C16.6076 20.7381 16.6076 15.262 19.9348 11.9348C23.2619 8.60768 28.738 8.60768 32.0652 11.9348Z" fill="#4D6FE5" fill-opacity="0.8"/>
  <path d="M24.0652 15.9348C27.3924 19.262 27.3924 24.7381 24.0652 28.0652C20.7381 31.3924 15.262 31.3924 11.9348 28.0652C8.60768 24.7381 8.60768 19.262 11.9348 15.9348C15.262 12.6077 20.7381 12.6077 24.0652 15.9348Z" fill="#4D6FE5" fill-opacity="0.4"/>
  <path d="M20.0652 19.9348C23.3924 23.262 23.3924 28.7381 20.0652 32.0652C16.7381 35.3924 11.262 35.3924 7.93483 32.0652C4.60767 28.738 4.60767 23.262 7.93483 19.9348C11.262 16.6077 16.7381 16.6077 20.0652 19.9348Z" fill="#4D6FE5" fill-opacity="0.2"/>
</svg>