<svg width="162" height="199" viewBox="0 0 162 199" fill="none" xmlns="http://www.w3.org/2000/svg">
<g opacity="0.05" clip-path="url(#clip0_6597_67480)">
<path d="M84.1274 193.31C84.1274 194.819 83.5287 196.266 82.4631 197.332C81.3975 198.399 79.9522 198.999 78.4452 198.999C76.9382 198.999 75.493 198.399 74.4274 197.332C73.3618 196.266 72.7632 194.819 72.7632 193.31C72.7632 191.801 73.3618 190.354 74.4274 189.287C75.493 188.22 76.9382 187.621 78.4452 187.621C79.9522 187.621 81.3975 188.22 82.4631 189.287C83.5287 190.354 84.1274 191.801 84.1274 193.31Z" fill="#162AA7"/>
<path d="M120.497 193.31C120.497 194.819 119.899 196.266 118.833 197.332C117.767 198.399 116.322 198.999 114.815 198.999C113.308 198.999 111.863 198.399 110.797 197.332C109.732 196.266 109.133 194.819 109.133 193.31C109.133 191.801 109.732 190.354 110.797 189.287C111.863 188.22 113.308 187.621 114.815 187.621C116.322 187.621 117.767 188.22 118.833 189.287C119.899 190.354 120.497 191.801 120.497 193.31Z" fill="#162AA7"/>
<path d="M156.891 193.31C156.884 194.821 156.281 196.268 155.211 197.334C154.142 198.4 152.694 198.999 151.185 198.999C149.68 198.993 148.238 198.391 147.174 197.326C146.11 196.26 145.509 194.817 145.503 193.31C145.503 191.801 146.102 190.354 147.167 189.287C148.233 188.22 149.678 187.621 151.185 187.621C151.933 187.618 152.675 187.763 153.367 188.047C154.059 188.332 154.688 188.75 155.218 189.279C155.748 189.808 156.169 190.436 156.456 191.128C156.743 191.819 156.891 192.561 156.891 193.31Z" fill="#162AA7"/>
<path d="M47.7575 158.919C47.7575 160.43 47.1597 161.88 46.0947 162.95C45.0298 164.021 43.5845 164.625 42.0754 164.632C41.3272 164.632 40.5864 164.484 39.8955 164.196C39.2046 163.909 38.5772 163.488 38.0493 162.957C37.5213 162.426 37.1033 161.796 36.8191 161.104C36.535 160.411 36.3903 159.668 36.3934 158.919C36.3934 157.411 36.992 155.964 38.0576 154.897C39.1232 153.83 40.5684 153.23 42.0754 153.23C43.5804 153.237 45.0222 153.838 46.0864 154.904C47.1507 155.969 47.7514 157.412 47.7575 158.919Z" fill="#162AA7"/>
<path d="M84.1274 158.919C84.1305 159.668 83.9858 160.411 83.7016 161.104C83.4175 161.796 82.9994 162.426 82.4715 162.957C81.9435 163.488 81.316 163.909 80.6251 164.196C79.9342 164.484 79.1934 164.632 78.4452 164.632C77.6971 164.632 76.9563 164.484 76.2654 164.196C75.5745 163.909 74.9471 163.488 74.4192 162.957C73.8912 162.426 73.4732 161.796 73.189 161.104C72.9048 160.411 72.7601 159.668 72.7632 158.919C72.7632 157.411 73.3619 155.964 74.4275 154.897C75.4931 153.83 76.9383 153.23 78.4452 153.23C79.9522 153.23 81.3976 153.83 82.4632 154.897C83.5288 155.964 84.1274 157.411 84.1274 158.919Z" fill="#162AA7"/>
<path d="M120.497 158.919C120.5 159.668 120.356 160.411 120.072 161.104C119.787 161.796 119.369 162.426 118.841 162.957C118.313 163.488 117.686 163.909 116.995 164.196C116.304 164.484 115.563 164.632 114.815 164.632C114.067 164.632 113.326 164.484 112.635 164.196C111.944 163.909 111.317 163.488 110.789 162.957C110.261 162.426 109.843 161.796 109.559 161.104C109.275 160.411 109.13 159.668 109.133 158.919C109.133 157.411 109.732 155.964 110.797 154.897C111.863 153.83 113.308 153.23 114.815 153.23C116.322 153.23 117.767 153.83 118.833 154.897C119.899 155.964 120.497 157.411 120.497 158.919Z" fill="#162AA7"/>
<path d="M156.891 158.919C156.891 160.434 156.289 161.887 155.219 162.959C154.149 164.03 152.698 164.632 151.185 164.632C149.676 164.625 148.231 164.021 147.166 162.95C146.101 161.88 145.503 160.43 145.503 158.919C145.509 157.412 146.11 155.969 147.174 154.904C148.238 153.838 149.68 153.237 151.185 153.23C152.694 153.23 154.142 153.829 155.211 154.895C156.281 155.961 156.884 157.408 156.891 158.919Z" fill="#162AA7"/>
<path d="M47.7575 124.552C47.7575 126.061 47.1588 127.508 46.0932 128.575C45.0277 129.642 43.5823 130.241 42.0753 130.241C40.5684 130.241 39.1231 129.642 38.0575 128.575C36.992 127.508 36.3933 126.061 36.3933 124.552C36.3933 123.805 36.5403 123.065 36.8258 122.375C37.1114 121.685 37.5299 121.058 38.0575 120.529C38.5852 120.001 39.2115 119.582 39.9009 119.296C40.5903 119.01 41.3291 118.863 42.0753 118.863C43.5804 118.869 45.0221 119.471 46.0864 120.536C47.1506 121.602 47.7513 123.045 47.7575 124.552Z" fill="#162AA7"/>
<path d="M84.1274 124.552C84.1274 126.061 83.5287 127.508 82.4631 128.575C81.3975 129.642 79.9522 130.241 78.4452 130.241C76.9382 130.241 75.493 129.642 74.4274 128.575C73.3618 127.508 72.7632 126.061 72.7632 124.552C72.7632 123.805 72.9101 123.065 73.1957 122.375C73.4812 121.685 73.8998 121.058 74.4274 120.529C74.955 120.001 75.5814 119.582 76.2708 119.296C76.9602 119.01 77.699 118.863 78.4452 118.863C79.1914 118.863 79.9304 119.01 80.6198 119.296C81.3091 119.582 81.9355 120.001 82.4631 120.529C82.9907 121.058 83.4093 121.685 83.6949 122.375C83.9804 123.065 84.1274 123.805 84.1274 124.552Z" fill="#162AA7"/>
<path d="M120.497 124.552C120.497 126.061 119.899 127.508 118.833 128.575C117.767 129.642 116.322 130.241 114.815 130.241C113.308 130.241 111.863 129.642 110.797 128.575C109.732 127.508 109.133 126.061 109.133 124.552C109.133 123.805 109.28 123.065 109.566 122.375C109.851 121.685 110.27 121.058 110.797 120.529C111.325 120.001 111.951 119.582 112.641 119.296C113.33 119.01 114.069 118.863 114.815 118.863C116.322 118.863 117.767 119.463 118.833 120.529C119.899 121.596 120.497 123.043 120.497 124.552Z" fill="#162AA7"/>
<path d="M156.891 124.552C156.891 125.301 156.743 126.043 156.456 126.735C156.169 127.426 155.748 128.055 155.218 128.583C154.688 129.112 154.059 129.53 153.367 129.815C152.675 130.099 151.933 130.244 151.185 130.241C149.678 130.241 148.233 129.642 147.167 128.575C146.102 127.508 145.503 126.061 145.503 124.552C145.509 123.045 146.11 121.602 147.174 120.536C148.238 119.471 149.68 118.869 151.185 118.863C152.694 118.863 154.142 119.462 155.211 120.528C156.281 121.594 156.884 123.041 156.891 124.552Z" fill="#162AA7"/>
<path d="M5.68205 95.8737C8.82017 95.8737 11.3641 93.3267 11.3641 90.1849C11.3641 87.0431 8.82017 84.4961 5.68205 84.4961C2.54394 84.4961 0 87.0431 0 90.1849C0 93.3267 2.54394 95.8737 5.68205 95.8737Z" fill="#162AA7"/>
<path d="M47.7575 90.1849C47.7575 91.6937 47.1588 93.1406 46.0932 94.2075C45.0277 95.2743 43.5823 95.8737 42.0753 95.8737C40.5684 95.8737 39.1231 95.2743 38.0575 94.2075C36.992 93.1406 36.3933 91.6937 36.3933 90.1849C36.3933 89.4379 36.5403 88.6981 36.8258 88.0079C37.1114 87.3177 37.5299 86.6906 38.0575 86.1623C38.5852 85.6341 39.2115 85.215 39.9009 84.9291C40.5903 84.6432 41.3291 84.4961 42.0753 84.4961C42.8215 84.4961 43.5604 84.6432 44.2497 84.9291C44.9391 85.215 45.5656 85.6341 46.0932 86.1623C46.6209 86.6906 47.0393 87.3177 47.3248 88.0079C47.6104 88.6981 47.7575 89.4379 47.7575 90.1849Z" fill="#162AA7"/>
<path d="M84.1274 90.1849C84.1274 91.6937 83.5287 93.1406 82.4631 94.2075C81.3975 95.2743 79.9522 95.8737 78.4452 95.8737C76.9382 95.8737 75.493 95.2743 74.4274 94.2075C73.3618 93.1406 72.7632 91.6937 72.7632 90.1849C72.7632 89.4379 72.9101 88.6981 73.1957 88.0079C73.4812 87.3177 73.8998 86.6906 74.4274 86.1623C74.955 85.6341 75.5814 85.215 76.2708 84.9291C76.9602 84.6432 77.699 84.4961 78.4452 84.4961C79.1914 84.4961 79.9304 84.6432 80.6198 84.9291C81.3091 85.215 81.9355 85.6341 82.4631 86.1623C82.9907 86.6906 83.4093 87.3177 83.6949 88.0079C83.9804 88.6981 84.1274 89.4379 84.1274 90.1849Z" fill="#162AA7"/>
<path d="M120.497 90.1849C120.497 91.6937 119.899 93.1406 118.833 94.2075C117.767 95.2743 116.322 95.8737 114.815 95.8737C113.308 95.8737 111.863 95.2743 110.797 94.2075C109.732 93.1406 109.133 91.6937 109.133 90.1849C109.133 89.4379 109.28 88.6981 109.566 88.0079C109.851 87.3177 110.27 86.6906 110.797 86.1623C111.325 85.6341 111.951 85.215 112.641 84.9291C113.33 84.6432 114.069 84.4961 114.815 84.4961C116.322 84.4961 117.767 85.0954 118.833 86.1623C119.899 87.2292 120.497 88.6762 120.497 90.1849Z" fill="#162AA7"/>
<path d="M156.891 90.185C156.891 90.934 156.743 91.6757 156.456 92.3674C156.169 93.0592 155.748 93.6873 155.218 94.2159C154.688 94.7444 154.059 95.163 153.367 95.4475C152.675 95.732 151.933 95.8768 151.185 95.8737C149.678 95.8737 148.233 95.2744 147.167 94.2075C146.102 93.1407 145.503 91.6937 145.503 90.185C145.503 89.4379 145.65 88.6981 145.936 88.0079C146.221 87.3177 146.64 86.6906 147.167 86.1624C147.695 85.6341 148.321 85.215 149.011 84.9292C149.7 84.6433 150.439 84.4961 151.185 84.4961C151.933 84.493 152.675 84.6379 153.367 84.9224C154.059 85.2069 154.688 85.6255 155.218 86.154C155.748 86.6826 156.169 87.3108 156.456 88.0025C156.743 88.6943 156.891 89.4359 156.891 90.185Z" fill="#162AA7"/>
<path d="M11.3642 55.8177C11.3642 57.3265 10.7655 58.7734 9.69994 59.8403C8.63435 60.9072 7.18899 61.5065 5.68201 61.5065C4.17694 61.5003 2.73537 60.899 1.67111 59.8335C0.606858 58.768 0.00618107 57.3246 0 55.8177C0 54.309 0.598643 52.862 1.66423 51.7951C2.72983 50.7283 4.17504 50.1289 5.68201 50.1289C7.18899 50.1289 8.63435 50.7283 9.69994 51.7951C10.7655 52.862 11.3642 54.309 11.3642 55.8177Z" fill="#162AA7"/>
<path d="M47.7575 55.8177C47.7513 57.3246 47.1506 58.768 46.0864 59.8335C45.0221 60.899 43.5804 61.5003 42.0753 61.5065C40.5684 61.5065 39.1231 60.9072 38.0575 59.8403C36.992 58.7734 36.3933 57.3265 36.3933 55.8177C36.3933 54.309 36.992 52.862 38.0575 51.7951C39.1231 50.7283 40.5684 50.1289 42.0753 50.1289C43.5823 50.1289 45.0277 50.7283 46.0932 51.7951C47.1588 52.862 47.7575 54.309 47.7575 55.8177Z" fill="#162AA7"/>
<path d="M84.1274 55.8177C84.1274 57.3265 83.5287 58.7734 82.4631 59.8403C81.3975 60.9072 79.9522 61.5065 78.4452 61.5065C76.9382 61.5065 75.493 60.9072 74.4274 59.8403C73.3618 58.7734 72.7632 57.3265 72.7632 55.8177C72.7632 54.309 73.3618 52.862 74.4274 51.7951C75.493 50.7283 76.9382 50.1289 78.4452 50.1289C79.9522 50.1289 81.3975 50.7283 82.4631 51.7951C83.5287 52.862 84.1274 54.309 84.1274 55.8177Z" fill="#162AA7"/>
<path d="M120.497 55.8177C120.497 57.3265 119.899 58.7734 118.833 59.8403C117.767 60.9072 116.322 61.5065 114.815 61.5065C113.308 61.5065 111.863 60.9072 110.797 59.8403C109.732 58.7734 109.133 57.3265 109.133 55.8177C109.133 54.309 109.732 52.862 110.797 51.7951C111.863 50.7283 113.308 50.1289 114.815 50.1289C116.322 50.1289 117.767 50.7283 118.833 51.7951C119.899 52.862 120.497 54.309 120.497 55.8177Z" fill="#162AA7"/>
<path d="M156.891 55.8178C156.884 57.3287 156.281 58.7756 155.211 59.8418C154.142 60.908 152.694 61.5066 151.185 61.5066C149.68 61.5004 148.238 60.899 147.174 59.8335C146.11 58.768 145.509 57.3247 145.503 55.8178C145.503 54.309 146.102 52.862 147.167 51.7952C148.233 50.7283 149.678 50.129 151.185 50.129C151.933 50.1259 152.675 50.2707 153.367 50.5552C154.059 50.8397 154.688 51.2583 155.218 51.7868C155.748 52.3154 156.169 52.9435 156.456 53.6353C156.743 54.327 156.891 55.0687 156.891 55.8178Z" fill="#162AA7"/>
<path d="M47.7575 21.4467C47.7514 22.9535 47.1507 24.397 46.0864 25.4625C45.0222 26.528 43.5804 27.1293 42.0754 27.1355C41.3292 27.1355 40.5903 26.9884 39.901 26.7025C39.2116 26.4166 38.5852 25.9976 38.0576 25.4693C37.53 24.941 37.1114 24.3139 36.8259 23.6237C36.5403 22.9335 36.3934 22.1937 36.3934 21.4467C36.3903 20.6976 36.535 19.9554 36.8191 19.2625C37.1033 18.5696 37.5213 17.9397 38.0493 17.4089C38.5772 16.8782 39.2046 16.457 39.8955 16.1697C40.5864 15.8823 41.3272 15.7344 42.0754 15.7344C43.5845 15.7406 45.0298 16.3452 46.0947 17.4158C47.1597 18.4864 47.7575 19.9357 47.7575 21.4467Z" fill="#162AA7"/>
<path d="M84.1274 21.4467C84.1274 22.1937 83.9805 22.9335 83.6949 23.6237C83.4094 24.3139 82.9908 24.941 82.4632 25.4693C81.9355 25.9976 81.3092 26.4166 80.6198 26.7025C79.9304 26.9884 79.1914 27.1355 78.4452 27.1355C77.6991 27.1355 76.9602 26.9884 76.2708 26.7025C75.5815 26.4166 74.9551 25.9976 74.4275 25.4693C73.8998 24.941 73.4813 24.3139 73.1957 23.6237C72.9102 22.9335 72.7632 22.1937 72.7632 21.4467C72.7601 20.6976 72.9048 19.9554 73.189 19.2625C73.4732 18.5696 73.8912 17.9397 74.4192 17.4089C74.9471 16.8782 75.5745 16.457 76.2654 16.1697C76.9563 15.8823 77.6971 15.7344 78.4452 15.7344C79.1934 15.7344 79.9342 15.8823 80.6251 16.1697C81.316 16.457 81.9435 16.8782 82.4715 17.4089C82.9994 17.9397 83.4175 18.5696 83.7016 19.2625C83.9858 19.9554 84.1305 20.6976 84.1274 21.4467Z" fill="#162AA7"/>
<path d="M120.497 21.4467C120.497 22.9554 119.899 24.4024 118.833 25.4693C117.767 26.5362 116.322 27.1355 114.815 27.1355C114.069 27.1355 113.33 26.9884 112.641 26.7025C111.951 26.4166 111.325 25.9976 110.797 25.4693C110.27 24.941 109.851 24.3139 109.566 23.6237C109.28 22.9335 109.133 22.1937 109.133 21.4467C109.13 20.6976 109.275 19.9554 109.559 19.2625C109.843 18.5696 110.261 17.9397 110.789 17.4089C111.317 16.8782 111.944 16.457 112.635 16.1697C113.326 15.8823 114.067 15.7344 114.815 15.7344C115.563 15.7344 116.304 15.8823 116.995 16.1697C117.686 16.457 118.313 16.8782 118.841 17.4089C119.369 17.9397 119.787 18.5696 120.072 19.2625C120.356 19.9554 120.5 20.6976 120.497 21.4467Z" fill="#162AA7"/>
<path d="M156.891 21.4467C156.884 22.9576 156.281 24.4045 155.211 25.4707C154.142 26.5369 152.694 27.1355 151.185 27.1355C149.68 27.1293 148.238 26.528 147.174 25.4625C146.11 24.397 145.509 22.9535 145.503 21.4467C145.503 19.9357 146.101 18.4864 147.166 17.4158C148.231 16.3452 149.676 15.7406 151.185 15.7344C152.698 15.7344 154.149 16.3362 155.219 17.4075C156.289 18.4787 156.891 19.9317 156.891 21.4467Z" fill="#162AA7"/>
</g>
<defs>
<clipPath id="clip0_6597_67480">
<rect width="266" height="252" fill="white" transform="translate(0 -53)"/>
</clipPath>
</defs>
</svg>
